<?xml version="1.0" encoding="UTF-8" standalone="no"?>
<!DOCTYPE svg PUBLIC "-//W3C//DTD SVG 1.1//EN"
 "http://www.w3.org/Graphics/SVG/1.1/DTD/svg11.dtd">
<!-- Generated by graphviz version 2.50.0 (20211204.2007)
 -->
<!-- Pages: 1 -->
<svg width="194pt" height="342pt"
 viewBox="0.00 0.00 193.71 341.89" xmlns="http://www.w3.org/2000/svg" xmlns:xlink="http://www.w3.org/1999/xlink">
<g id="graph0" class="graph" transform="scale(1 1) rotate(0) translate(4 337.89)">
<polygon fill="white" stroke="transparent" points="-4,4 -4,-337.89 189.71,-337.89 189.71,4 -4,4"/>
<!-- Cart Position -->
<g id="node1" class="node">
<title>Cart Position</title>
<polygon fill="lightgray" stroke="black" points="65,-333.89 0,-333.89 0,-315.89 65,-315.89 65,-333.89"/>
<text text-anchor="middle" x="32.5" y="-322.69" font-family="Times New Roman,serif" font-size="9.00">Cart Position</text>
</g>
<!-- Cart Velocity -->
<g id="node2" class="node">
<title>Cart Velocity</title>
<polygon fill="lightgray" stroke="black" points="148,-333.89 83,-333.89 83,-315.89 148,-315.89 148,-333.89"/>
<text text-anchor="middle" x="115.5" y="-322.69" font-family="Times New Roman,serif" font-size="9.00">Cart Velocity</text>
</g>
<!-- Power Coefficient -->
<g id="node3" class="node">
<title>Power Coefficient</title>
<ellipse fill="lightblue" stroke="black" cx="103.5" cy="-57.98" rx="57.97" ry="57.97"/>
<text text-anchor="middle" x="103.5" y="-55.78" font-family="Times New Roman,serif" font-size="9.00">Power Coefficient</text>
</g>
<!-- Cart Velocity&#45;&gt;Power Coefficient -->
<g id="edge1" class="edge">
<title>Cart Velocity&#45;&gt;Power Coefficient</title>
<path fill="none" stroke="green" stroke-width="1.3" d="M113.77,-315.63C109.74,-295.96 99.84,-244.78 96.5,-201.46 94.81,-179.53 95.67,-173.95 96.5,-151.97 96.81,-143.59 97.29,-134.81 97.84,-126.12"/>
<polygon fill="green" stroke="green" stroke-width="1.3" points="101.35,-126.2 98.53,-115.99 94.36,-125.73 101.35,-126.2"/>
</g>
<!-- 2236 -->
<g id="node4" class="node">
<title>2236</title>
<ellipse fill="white" stroke="black" cx="130.5" cy="-176.71" rx="25" ry="25"/>
<text text-anchor="middle" x="130.5" y="-174.51" font-family="Times New Roman,serif" font-size="9.00">2236</text>
</g>
<!-- Cart Velocity&#45;&gt;2236 -->
<g id="edge5" class="edge">
<title>Cart Velocity&#45;&gt;2236</title>
<path fill="none" stroke="red" stroke-width="0.16" d="M116.35,-315.61C118.37,-295.96 123.53,-245.6 127.03,-211.5"/>
<polygon fill="red" stroke="red" stroke-width="0.16" points="130.52,-211.79 128.06,-201.49 123.56,-211.08 130.52,-211.79"/>
</g>
<!-- 228 -->
<g id="node5" class="node">
<title>228</title>
<ellipse fill="white" stroke="black" cx="164.5" cy="-258.68" rx="21.43" ry="21.43"/>
<text text-anchor="middle" x="164.5" y="-256.48" font-family="Times New Roman,serif" font-size="9.00">228</text>
</g>
<!-- Cart Velocity&#45;&gt;228 -->
<g id="edge2" class="edge">
<title>Cart Velocity&#45;&gt;228</title>
<path fill="none" stroke="red" stroke-width="0.23" d="M121.71,-315.76C127.74,-307.85 137.21,-295.44 145.71,-284.3"/>
<polygon fill="red" stroke="red" stroke-width="0.23" points="148.67,-286.2 151.95,-276.12 143.1,-281.95 148.67,-286.2"/>
</g>
<!-- 2236&#45;&gt;Power Coefficient -->
<g id="edge4" class="edge">
<title>2236&#45;&gt;Power Coefficient</title>
<path fill="none" stroke="red" stroke-width="0.18" d="M125.1,-152.37C123.21,-144.19 120.98,-134.55 118.68,-124.62"/>
<polygon fill="red" stroke="red" stroke-width="0.18" points="122.04,-123.6 116.37,-114.64 115.22,-125.17 122.04,-123.6"/>
</g>
<!-- 228&#45;&gt;2236 -->
<g id="edge3" class="edge">
<title>228&#45;&gt;2236</title>
<path fill="none" stroke="red" stroke-width="0.23" d="M156.44,-238.73C152.66,-229.84 148.06,-219.01 143.78,-208.95"/>
<polygon fill="red" stroke="red" stroke-width="0.23" points="146.96,-207.47 139.82,-199.64 140.52,-210.21 146.96,-207.47"/>
</g>
</g>
</svg>
