<?xml version="1.0" encoding="UTF-8" standalone="no"?>
<!DOCTYPE svg PUBLIC "-//W3C//DTD SVG 1.1//EN"
 "http://www.w3.org/Graphics/SVG/1.1/DTD/svg11.dtd">
<!-- Generated by graphviz version 2.50.0 (20211204.2007)
 -->
<!-- Pages: 1 -->
<svg width="357pt" height="252pt"
 viewBox="0.00 0.00 356.71 252.15" xmlns="http://www.w3.org/2000/svg" xmlns:xlink="http://www.w3.org/1999/xlink">
<g id="graph0" class="graph" transform="scale(1 1) rotate(0) translate(4 248.15)">
<polygon fill="white" stroke="transparent" points="-4,4 -4,-248.15 352.71,-248.15 352.71,4 -4,4"/>
<!-- Cart Position -->
<g id="node1" class="node">
<title>Cart Position</title>
<polygon fill="lightgray" stroke="black" points="65,-244.15 0,-244.15 0,-226.15 65,-226.15 65,-244.15"/>
<text text-anchor="middle" x="32.5" y="-232.95" font-family="Times New Roman,serif" font-size="9.00">Cart Position</text>
</g>
<!-- Cart Velocity -->
<g id="node2" class="node">
<title>Cart Velocity</title>
<polygon fill="lightgray" stroke="black" points="263,-244.15 198,-244.15 198,-226.15 263,-226.15 263,-244.15"/>
<text text-anchor="middle" x="230.5" y="-232.95" font-family="Times New Roman,serif" font-size="9.00">Cart Velocity</text>
</g>
<!-- 62 -->
<g id="node8" class="node">
<title>62</title>
<ellipse fill="white" stroke="black" cx="177.5" cy="-168.94" rx="18.27" ry="18.27"/>
<text text-anchor="middle" x="177.5" y="-166.74" font-family="Times New Roman,serif" font-size="9.00">62</text>
</g>
<!-- Cart Velocity&#45;&gt;62 -->
<g id="edge7" class="edge">
<title>Cart Velocity&#45;&gt;62</title>
<path fill="none" stroke="green" stroke-width="0.23" d="M223.79,-226.02C216.64,-217.35 205.02,-203.27 195.21,-191.39"/>
<polygon fill="green" stroke="green" stroke-width="0.23" points="197.85,-189.09 188.79,-183.61 192.45,-193.55 197.85,-189.09"/>
</g>
<!-- 63 -->
<g id="node9" class="node">
<title>63</title>
<ellipse fill="white" stroke="black" cx="232.5" cy="-168.94" rx="18.27" ry="18.27"/>
<text text-anchor="middle" x="232.5" y="-166.74" font-family="Times New Roman,serif" font-size="9.00">63</text>
</g>
<!-- Cart Velocity&#45;&gt;63 -->
<g id="edge10" class="edge">
<title>Cart Velocity&#45;&gt;63</title>
<path fill="none" stroke="red" stroke-width="0.27" d="M230.75,-226.02C230.98,-218.85 231.31,-207.99 231.63,-197.73"/>
<polygon fill="red" stroke="red" stroke-width="0.27" points="235.14,-197.53 231.96,-187.43 228.15,-197.31 235.14,-197.53"/>
</g>
<!-- Pole Angle -->
<g id="node3" class="node">
<title>Pole Angle</title>
<polygon fill="lightgray" stroke="black" points="337.5,-244.15 281.5,-244.15 281.5,-226.15 337.5,-226.15 337.5,-244.15"/>
<text text-anchor="middle" x="309.5" y="-232.95" font-family="Times New Roman,serif" font-size="9.00">Pole Angle</text>
</g>
<!-- Push cart to right -->
<g id="node6" class="node">
<title>Push cart to right</title>
<ellipse fill="lightblue" stroke="black" cx="278.5" cy="-55.86" rx="55.72" ry="55.72"/>
<text text-anchor="middle" x="278.5" y="-53.66" font-family="Times New Roman,serif" font-size="9.00">Push cart to right</text>
</g>
<!-- Pole Angle&#45;&gt;Push cart to right -->
<g id="edge5" class="edge">
<title>Pole Angle&#45;&gt;Push cart to right</title>
<path fill="none" stroke="red" stroke-width="0.27" stroke-dasharray="1,5" d="M306.98,-226.11C304.31,-217.35 300.13,-202.87 297.5,-190.15 292.92,-168.02 289.09,-143.59 286.1,-121.76"/>
<polygon fill="red" stroke="red" stroke-width="0.27" points="289.54,-121.05 284.74,-111.6 282.6,-121.98 289.54,-121.05"/>
</g>
<!-- 514 -->
<g id="node7" class="node">
<title>514</title>
<ellipse fill="white" stroke="black" cx="327.5" cy="-168.94" rx="21.43" ry="21.43"/>
<text text-anchor="middle" x="327.5" y="-166.74" font-family="Times New Roman,serif" font-size="9.00">514</text>
</g>
<!-- Pole Angle&#45;&gt;514 -->
<g id="edge11" class="edge">
<title>Pole Angle&#45;&gt;514</title>
<path fill="none" stroke="green" stroke-width="0.28" d="M311.78,-226.02C313.68,-219.25 316.5,-209.19 319.23,-199.45"/>
<polygon fill="green" stroke="green" stroke-width="0.28" points="322.67,-200.15 322,-189.57 315.93,-198.26 322.67,-200.15"/>
</g>
<!-- Pole Angle&#45;&gt;63 -->
<g id="edge1" class="edge">
<title>Pole Angle&#45;&gt;63</title>
<path fill="none" stroke="red" stroke-width="0.49" d="M299.75,-226.02C288.34,-216.51 269.12,-200.48 254.14,-187.98"/>
<polygon fill="red" stroke="red" stroke-width="0.49" points="256.25,-185.19 246.33,-181.47 251.77,-190.56 256.25,-185.19"/>
</g>
<!-- Pole Angular Velocity -->
<g id="node4" class="node">
<title>Pole Angular Velocity</title>
<polygon fill="lightgray" stroke="black" points="179.5,-244.15 83.5,-244.15 83.5,-226.15 179.5,-226.15 179.5,-244.15"/>
<text text-anchor="middle" x="131.5" y="-232.95" font-family="Times New Roman,serif" font-size="9.00">Pole Angular Velocity</text>
</g>
<!-- Push cart to left -->
<g id="node5" class="node">
<title>Push cart to left</title>
<ellipse fill="lightblue" stroke="black" cx="152.5" cy="-55.86" rx="52.15" ry="52.15"/>
<text text-anchor="middle" x="152.5" y="-53.66" font-family="Times New Roman,serif" font-size="9.00">Push cart to left</text>
</g>
<!-- Pole Angular Velocity&#45;&gt;Push cart to left -->
<g id="edge8" class="edge">
<title>Pole Angular Velocity&#45;&gt;Push cart to left</title>
<path fill="none" stroke="red" stroke-width="0.57" d="M132.46,-226.07C134.7,-207.15 140.46,-158.51 145.23,-118.21"/>
<polygon fill="red" stroke="red" stroke-width="0.57" points="148.72,-118.51 146.42,-108.17 141.77,-117.69 148.72,-118.51"/>
</g>
<!-- Pole Angular Velocity&#45;&gt;62 -->
<g id="edge9" class="edge">
<title>Pole Angular Velocity&#45;&gt;62</title>
<path fill="none" stroke="red" stroke-width="0.16" d="M137.33,-226.02C143.26,-217.73 152.74,-204.5 161,-192.98"/>
<polygon fill="red" stroke="red" stroke-width="0.16" points="164.02,-194.77 167,-184.6 158.33,-190.69 164.02,-194.77"/>
</g>
<!-- 514&#45;&gt;Push cart to right -->
<g id="edge12" class="edge">
<title>514&#45;&gt;Push cart to right</title>
<path fill="none" stroke="red" stroke-width="0.16" d="M319.3,-149.34C315.22,-140.09 310.03,-128.34 304.74,-116.33"/>
<polygon fill="red" stroke="red" stroke-width="0.16" points="307.92,-114.88 300.68,-107.15 301.52,-117.71 307.92,-114.88"/>
</g>
<!-- 62&#45;&gt;Push cart to left -->
<g id="edge6" class="edge">
<title>62&#45;&gt;Push cart to left</title>
<path fill="none" stroke="red" stroke-width="0.1" d="M173.59,-150.58C171.51,-141.34 168.82,-129.36 166.05,-117.07"/>
<polygon fill="red" stroke="red" stroke-width="0.1" points="169.44,-116.19 163.83,-107.2 162.61,-117.72 169.44,-116.19"/>
</g>
<!-- 62&#45;&gt;Push cart to right -->
<g id="edge2" class="edge">
<title>62&#45;&gt;Push cart to right</title>
<path fill="none" stroke="red" stroke-width="0.26" d="M189.48,-154.76C200.64,-142.49 217.97,-123.43 234.39,-105.38"/>
<polygon fill="red" stroke="red" stroke-width="0.26" points="237.21,-107.48 241.34,-97.72 232.03,-102.77 237.21,-107.48"/>
</g>
<!-- 63&#45;&gt;Push cart to left -->
<g id="edge4" class="edge">
<title>63&#45;&gt;Push cart to left</title>
<path fill="none" stroke="green" stroke-width="0.45" d="M222.04,-153.42C213.45,-141.49 200.76,-123.86 188.55,-106.92"/>
<polygon fill="green" stroke="green" stroke-width="0.45" points="191.31,-104.75 182.62,-98.69 185.63,-108.85 191.31,-104.75"/>
</g>
<!-- 63&#45;&gt;Push cart to right -->
<g id="edge3" class="edge">
<title>63&#45;&gt;Push cart to right</title>
<path fill="none" stroke="red" stroke-width="0.34" d="M239.29,-151.55C243.11,-142.31 248.15,-130.14 253.34,-117.62"/>
<polygon fill="red" stroke="red" stroke-width="0.34" points="256.73,-118.59 257.32,-108.01 250.26,-115.91 256.73,-118.59"/>
</g>
</g>
</svg>
