<?xml version="1.0" encoding="UTF-8" standalone="no"?>
<!DOCTYPE svg PUBLIC "-//W3C//DTD SVG 1.1//EN"
 "http://www.w3.org/Graphics/SVG/1.1/DTD/svg11.dtd">
<!-- Generated by graphviz version 2.50.0 (20211204.2007)
 -->
<!-- Pages: 1 -->
<svg width="130pt" height="301pt"
 viewBox="0.00 0.00 129.98 300.88" xmlns="http://www.w3.org/2000/svg" xmlns:xlink="http://www.w3.org/1999/xlink">
<g id="graph0" class="graph" transform="scale(1 1) rotate(0) translate(4 296.88)">
<polygon fill="white" stroke="transparent" points="-4,4 -4,-296.88 125.98,-296.88 125.98,4 -4,4"/>
<!-- A -->
<g id="node1" class="node">
<title>A</title>
<polygon fill="lightgray" stroke="black" points="48.98,-292.88 25.98,-292.88 25.98,-274.88 48.98,-274.88 48.98,-292.88"/>
<text text-anchor="middle" x="37.48" y="-281.68" font-family="Times New Roman,serif" font-size="9.00">A</text>
</g>
<!-- A XOR B -->
<g id="node3" class="node">
<title>A XOR B</title>
<ellipse fill="lightblue" stroke="black" cx="37.48" cy="-37.48" rx="37.45" ry="37.45"/>
<text text-anchor="middle" x="37.48" y="-35.28" font-family="Times New Roman,serif" font-size="9.00">A XOR B</text>
</g>
<!-- A&#45;&gt;A XOR B -->
<g id="edge1" class="edge">
<title>A&#45;&gt;A XOR B</title>
<path fill="none" stroke="green" stroke-width="0.18" stroke-dasharray="1,5" d="M37.48,-274.75C37.48,-245.7 37.48,-145.59 37.48,-85.4"/>
<polygon fill="green" stroke="green" stroke-width="0.18" points="40.98,-85.37 37.48,-75.37 33.98,-85.37 40.98,-85.37"/>
</g>
<!-- 714 -->
<g id="node4" class="node">
<title>714</title>
<ellipse fill="white" stroke="black" cx="86.48" cy="-217.66" rx="21.43" ry="21.43"/>
<text text-anchor="middle" x="86.48" y="-215.46" font-family="Times New Roman,serif" font-size="9.00">714</text>
</g>
<!-- A&#45;&gt;714 -->
<g id="edge4" class="edge">
<title>A&#45;&gt;714</title>
<path fill="none" stroke="green" stroke-width="0.84" d="M43.68,-274.74C49.72,-266.84 59.19,-254.43 67.69,-243.29"/>
<polygon fill="green" stroke="green" stroke-width="0.84" points="70.64,-245.18 73.93,-235.11 65.08,-240.94 70.64,-245.18"/>
</g>
<!-- 1211 -->
<g id="node5" class="node">
<title>1211</title>
<ellipse fill="white" stroke="black" cx="90.48" cy="-135.7" rx="25" ry="25"/>
<text text-anchor="middle" x="90.48" y="-133.5" font-family="Times New Roman,serif" font-size="9.00">1211</text>
</g>
<!-- A&#45;&gt;1211 -->
<g id="edge7" class="edge">
<title>A&#45;&gt;1211</title>
<path fill="none" stroke="red" stroke-width="0.25" d="M38.46,-274.54C40.5,-258.83 45.9,-223.98 56.48,-196.45 60.53,-185.9 66.24,-174.97 71.83,-165.4"/>
<polygon fill="red" stroke="red" stroke-width="0.25" points="74.91,-167.06 77.08,-156.69 68.92,-163.44 74.91,-167.06"/>
</g>
<!-- B -->
<g id="node2" class="node">
<title>B</title>
<polygon fill="lightgray" stroke="black" points="121.98,-292.88 98.98,-292.88 98.98,-274.88 121.98,-274.88 121.98,-292.88"/>
<text text-anchor="middle" x="110.48" y="-281.68" font-family="Times New Roman,serif" font-size="9.00">B</text>
</g>
<!-- B&#45;&gt;714 -->
<g id="edge2" class="edge">
<title>B&#45;&gt;714</title>
<path fill="none" stroke="green" stroke-width="1.02" d="M107.44,-274.74C104.82,-267.74 100.88,-257.19 97.11,-247.13"/>
<polygon fill="green" stroke="green" stroke-width="1.02" points="100.39,-245.9 93.61,-237.76 93.84,-248.35 100.39,-245.9"/>
</g>
<!-- B&#45;&gt;1211 -->
<g id="edge8" class="edge">
<title>B&#45;&gt;1211</title>
<path fill="none" stroke="red" stroke-width="0.13" d="M112.52,-274.67C116.04,-259.2 122.36,-224.72 116.48,-196.45 114.39,-186.42 110.53,-176.01 106.4,-166.75"/>
<polygon fill="red" stroke="red" stroke-width="0.13" points="109.51,-165.12 102.08,-157.57 103.18,-168.11 109.51,-165.12"/>
</g>
<!-- 714&#45;&gt;A XOR B -->
<g id="edge3" class="edge">
<title>714&#45;&gt;A XOR B</title>
<path fill="none" stroke="red" stroke-width="0.19" stroke-dasharray="1,5" d="M75.14,-199.13C68.7,-188.37 61.03,-174.09 56.48,-160.45 48.41,-136.3 43.74,-108.3 41.05,-85.22"/>
<polygon fill="red" stroke="red" stroke-width="0.19" points="44.5,-84.56 39.95,-74.99 37.54,-85.31 44.5,-84.56"/>
</g>
<!-- 714&#45;&gt;1211 -->
<g id="edge5" class="edge">
<title>714&#45;&gt;1211</title>
<path fill="none" stroke="green" stroke-width="0.52" d="M87.51,-196.07C87.89,-188.37 88.34,-179.41 88.77,-170.82"/>
<polygon fill="green" stroke="green" stroke-width="0.52" points="92.28,-170.79 89.28,-160.63 85.28,-170.44 92.28,-170.79"/>
</g>
<!-- 1211&#45;&gt;A XOR B -->
<g id="edge6" class="edge">
<title>1211&#45;&gt;A XOR B</title>
<path fill="none" stroke="green" stroke-width="0.86" d="M78.71,-113.35C73.28,-103.47 66.62,-91.39 60.26,-79.85"/>
<polygon fill="green" stroke="green" stroke-width="0.86" points="63.14,-77.82 55.25,-70.75 57.01,-81.2 63.14,-77.82"/>
</g>
</g>
</svg>
